<?xml version="1.0" standalone="no"?><!DOCTYPE svg PUBLIC "-//W3C//DTD SVG 1.1//EN" "http://www.w3.org/Graphics/SVG/1.1/DTD/svg11.dtd"><svg t="1577950282678" class="icon" viewBox="0 0 1024 1024" version="1.1" xmlns="http://www.w3.org/2000/svg" p-id="4192" xmlns:xlink="http://www.w3.org/1999/xlink" width="200" height="200"><defs><style type="text/css">@font-face { font-family: element-icons; src: url("chrome-extension://moombeodfomdpjnpocobemoiaemednkg/fonts/element-icons.woff") format("woff"), url("chrome-extension://moombeodfomdpjnpocobemoiaemednkg/fonts/element-icons.ttf") format("truetype"); }
</style></defs><path d="M106.121543 616.511002l414.084512-414.084512 71.467806 71.456868L177.578411 687.989746z" fill="#F6E89A" p-id="4193"></path><path d="M177.501847 705.49028A17.281777 17.281777 0 0 1 165.360851 700.021363l-71.642811-71.09592a17.609912 17.609912 0 0 1 0-24.719504l414.106387-413.997009a17.938047 17.938047 0 0 1 24.719505 0l71.424054 71.424054a17.391156 17.391156 0 0 1 0 24.610126L189.861599 700.021363a17.391156 17.391156 0 0 1-12.359752 5.468917z m-46.704551-88.924589l46.704551 46.813929 389.496261-389.386883-46.813929-46.813929z" fill="#8D4520" p-id="4194"></path><path d="M690.376873 908.933988c0 47.251442-99.643666 85.643239-222.475539 85.643239s-222.256783-38.391797-222.256783-85.643239 99.534288-85.53386 222.366161-85.53386S690.376873 861.682546 690.376873 908.933988z" fill="#F6E89A" p-id="4195"></path><path d="M468.010712 1011.968383c-116.269173 0-239.866695-36.094852-239.866695-103.034395S351.304026 806.008972 468.010712 806.008972 707.877407 842.213202 707.877407 908.933988s-123.597522 103.034394-239.866695 103.034395z m0-171.067721c-126.98825 0-204.975005 39.704337-204.975005 68.033326s77.986755 68.142705 204.975005 68.142705 204.975005-39.704337 204.975006-68.142705-77.986755-68.033326-204.975006-68.033326z" fill="#8D4520" p-id="4196"></path><path d="M542.169225 910.684042a363.792352 363.792352 0 0 1-69.783379 8.750267 231.882076 231.882076 0 0 1-61.033113-8.750267L111.984222 614.049989l71.424055-71.424054z" fill="#F6E89A" p-id="4197"></path><path d="M472.385846 936.825465a247.523179 247.523179 0 0 1-65.627003-9.515916 16.297372 16.297372 0 0 1-7.109592-4.265755L99.733848 626.51912a17.609912 17.609912 0 0 1-5.140782-12.359752A17.391156 17.391156 0 0 1 99.733848 601.580859l71.424055-71.533433a18.922452 18.922452 0 0 1 12.359752-5.031404 17.172399 17.172399 0 0 1 12.359752 5.25016l358.760949 367.948729a17.719291 17.719291 0 0 1 4.484512 17.391156 17.391156 17.391156 0 0 1-12.797266 12.031617 373.527024 373.527024 0 0 1-73.939756 9.187781z m-51.954711-41.782525a216.897244 216.897244 0 0 0 51.954711 6.890835 269.726981 269.726981 0 0 0 34.344798-2.62508L183.18952 567.454817l-46.485793 46.595172z" fill="#8D4520" p-id="4198"></path><path d="M752.175634 194.255928L584.170507 26.141423s-61.361248 24.063234-76.564836 39.048066C490.105137 81.924375 460.682364 149.520188 460.682364 149.520188L628.796869 317.19718c-20.125614 65.627003 5.031404 157.176672 56.548601 208.693869l263.054903-262.508011c-50.204657-50.532792-131.582141-87.174535-196.224739-69.12711z" fill="#F6E89A" p-id="4199"></path><path d="M685.34547 543.719718a17.281777 17.281777 0 0 1-12.250374-5.140782c-54.689169-54.689169-80.502457-145.035676-63.767571-215.803461L448.43199 161.87994a17.391156 17.391156 0 0 1-3.609485-19.688101c4.922025-10.937834 31.61034-71.314676 50.423413-89.580858 17.172399-16.516129 71.75219-38.501175 82.471267-42.657552a17.172399 17.172399 0 0 1 18.703696 3.828242L757.644551 175.005341a158.270455 158.270455 0 0 1 29.969665-2.843837c57.314249 0 125.238197 30.844691 173.145909 78.752403a17.391156 17.391156 0 0 1 0 24.610126l-262.508011 263.054903a17.500534 17.500534 0 0 1-12.906644 5.140782zM481.573626 145.691946L641.156621 305.165563a17.500534 17.500534 0 0 1 4.375134 17.500534c-16.734886 54.689169 0.984405 129.503952 40.469985 178.286691l237.241615-237.241615c-40.251228-34.782311-91.877804-56.657979-135.629139-56.657979a115.941038 115.941038 0 0 0-30.735313 3.93762 17.281777 17.281777 0 0 1-17.063021-4.484512L579.904752 46.70455a293.352702 293.352702 0 0 0-60.376843 31.063448c-8.969024 8.640889-26.032044 41.782525-37.954283 67.923948z" fill="#8D4520" p-id="4200"></path><path d="M888.02353 298.602863c-35.876095-35.766717-73.939756-43.095065-135.957274-25.922666a34.563555 34.563555 0 0 1-33.469771-8.531511L529.481338 81.705618l48.454604-50.204657 175.005341 168.989532c54.689169-12.359752 122.175604-13.234779 184.302499 48.782739z" fill="#8D4520" opacity=".2" p-id="4201"></path><path d="M197.627461 626.51912m-117.691092 0a117.691092 117.691092 0 1 0 235.382183 0 117.691092 117.691092 0 1 0-235.382183 0Z" fill="#F6E89A" p-id="4202"></path><path d="M198.174352 761.710746a135.191626 135.191626 0 1 1 134.644735-135.191626A135.410382 135.410382 0 0 1 198.174352 761.710746z m0-235.491562a100.299936 100.299936 0 1 0 100.299936 100.299936A100.409314 100.409314 0 0 0 198.174352 526.219184z" fill="#8D4520" p-id="4203"></path><path d="M197.627461 626.51912m-48.017091 0a48.01709 48.01709 0 1 0 96.034181 0 48.01709 48.01709 0 1 0-96.034181 0Z" fill="#FFFFFF" p-id="4204"></path><path d="M198.174352 691.927366a65.627003 65.627003 0 1 1 65.627003-65.627003 65.627003 65.627003 0 0 1-65.627003 65.627003z m0-95.924802a30.516556 30.516556 0 1 0 30.516557 30.516556A30.625935 30.625935 0 0 0 198.174352 596.002564z" fill="#8D4520" p-id="4205"></path><path d="M948.400373 263.164281c25.813288 25.922666-12.140996 105.768853-84.768212 178.396069s-152.364025 110.472121-178.286691 84.658834 12.140996-105.659474 84.768212-178.286691 152.473403-110.5815 178.286691-84.768212z" fill="#F6E89A" p-id="4206"></path><path d="M708.643056 551.813715a48.345225 48.345225 0 0 1-35.54796-13.234779c-38.82931-38.82931 13.234779-131.254006 84.658834-203.006195 59.501816-59.501816 125.238197-97.893612 167.348857-97.893613a48.563982 48.563982 0 0 1 35.657338 13.234779c38.82931 38.82931-13.234779 131.254006-84.768212 202.896817-59.501816 59.501816-125.128819 98.002991-167.348857 98.002991z m216.459731-279.242897c-26.469558 0-82.361888 27.453963-142.19184 87.502671-77.111728 77.111728-96.471694 142.191839-84.768212 153.129673a16.297372 16.297372 0 0 0 10.937834 3.062593c26.469558 0 82.471267-27.453963 142.191839-87.50267 76.564837-77.111728 96.362316-142.191839 84.658834-153.129673a16.844264 16.844264 0 0 0-10.828455-3.062594z" fill="#8D4520" p-id="4207"></path><path d="M740.690909 401.746635a59.283059 59.283059 0 1 0 83.893185-83.783807" fill="#FFFFFF" p-id="4208"></path><path d="M782.582812 436.528947a76.564837 76.564837 0 0 1-54.689169-21.875668 17.391156 17.391156 0 0 1 24.719505-24.610126 41.891903 41.891903 0 1 0 59.17368-59.173681 17.391156 17.391156 0 0 1 24.610126-24.719504 76.564837 76.564837 0 0 1-54.689168 131.254006z" fill="#8D4520" p-id="4209"></path><path d="M459.369824 1024c-123.597522 0-248.616962-38.282418-248.616963-111.675283 0-36.20423 23.406964-63.876949 69.674002-82.471267L226.722099 776.5862a196.881008 196.881008 0 0 1-32.813502 2.515701A153.129673 153.129673 0 0 1 45.044679 629.80047c0-75.142918 56.329844-155.535997 140.22303-155.535997h21.00064L471.620197 209.022004l-37.735526-37.626148a26.578936 26.578936 0 0 1-7.218971-23.625721 196.881008 196.881008 0 0 1 56.767358-96.034181A216.240974 216.240974 0 0 1 574.545213 0.65627a26.250801 26.250801 0 0 1 24.281991 7.000214l159.911131 160.348643c10.937834-0.984405 28.766503-2.078188 42.657551-2.078188a115.503525 115.503525 0 0 1 19.469345 1.203161 245.663747 245.663747 0 0 1 135.847895 67.377057 26.469558 26.469558 0 0 1 5.031404 7.000213 35.438581 35.438581 0 0 0 2.296945 4.156377c43.095065 45.282632-13.891049 142.191839-85.643239 214.381542-62.017518 62.017518-128.519547 100.518693-173.583422 100.518693a56.986114 56.986114 0 0 1-41.782525-15.859859l-4.703269-4.812647a34.672933 34.672933 0 0 1-3.828242-3.171972 232.100833 232.100833 0 0 1-63.439436-207.818842l-10.937833-10.937834-244.023072 248.179449a196.11536 196.11536 0 0 1 10.937833 63.986328 190.646443 190.646443 0 0 1-2.62508 36.313608l138.801111 134.972869c132.894681 3.609485 224.663106 48.67336 224.663106 110.909635 0 73.392865-125.01944 111.675283-248.507583 111.675283zM234.597339 721.897031a26.469558 26.469558 0 0 1 18.484939 7.547105l95.268533 94.393506a26.250801 26.250801 0 0 1-12.578509 43.751335c-27.125828 6.234565-72.736595 20.453749-72.736595 44.845118 0 21.000641 74.596026 59.392438 196.881008 59.392438s196.224738-38.391797 196.224739-59.392438-63.548814-57.533006-183.974365-59.283059a26.360179 26.360179 0 0 1-18.047426-7.437727l-156.957915-153.129673a26.250801 26.250801 0 0 1-6.125187-28.32899 102.159368 102.159368 0 0 0 4.046999-34.672933 127.972655 127.972655 0 0 0-12.797266-56.111087 26.250801 26.250801 0 0 1 3.828242-31.719718L560.9823 262.508011a26.469558 26.469558 0 0 1 18.594317-7.87524 26.469558 26.469558 0 0 1 18.484939 7.656483l40.469985 40.469985a26.141423 26.141423 0 0 1 6.5627 25.375775c-16.734886 54.689169 0.765648 122.39436 42.548174 167.1301a22.750694 22.750694 0 0 1 5.578295 4.703269c2.296945 2.515702 4.484512 5.031404 6.781457 7.328348a35.876095 35.876095 0 0 0 4.812647 0c25.485153 0 80.611835-29.204016 136.504166-85.096346 72.627216-72.736595 90.12775-131.254006 84.440077-141.644948a56.001709 56.001709 0 0 1-8.859646-12.687887A196.224738 196.224738 0 0 0 812.880612 218.756676h-1.31254a75.799188 75.799188 0 0 0-10.172186 0c-19.797479 0-49.657765 2.953215-49.876522 2.953215a25.922666 25.922666 0 0 1-21.110019-7.547105L573.123295 56.001709a170.520829 170.520829 0 0 0-54.689169 34.016663 149.082675 149.082675 0 0 0-37.188635 55.454817L526.309366 190.537065a26.250801 26.250801 0 0 1 0 36.969878L235.253609 519.109592a26.250801 26.250801 0 0 1-21.875668 7.437727h-28.000854c-51.735954 0-87.50267 54.689169-87.50267 103.253151a100.518693 100.518693 0 0 0 128.628925 93.080966 26.469558 26.469558 0 0 1 8.093997-0.984405z" fill="#8D4520" p-id="4210"></path><path d="M496.230323 98.440504a26.032044 26.032044 0 0 1-18.484939-7.656483l-30.516556-30.188422a26.141423 26.141423 0 0 1 36.969878-36.969878L514.715263 54.689169a26.141423 26.141423 0 0 1-18.48494 43.751335z" fill="#8D4520" p-id="4211"></path></svg>